<?xml version="1.0" standalone="no"?>
<!DOCTYPE svg PUBLIC "-//W3C//DTD SVG 20010904//EN"
 "http://www.w3.org/TR/2001/REC-SVG-20010904/DTD/svg10.dtd">
<svg version="1.0" xmlns="http://www.w3.org/2000/svg"
 width="250.000000pt" height="250.000000pt" viewBox="0 0 250.000000 250.000000"
 preserveAspectRatio="xMidYMid meet">
<metadata>
Created by potrace 1.14, written by Peter Selinger 2001-2017
</metadata>
<g transform="translate(0.000000,250.000000) scale(0.100000,-0.100000)"
fill="#000000" stroke="none">
<path d="M213 1788 c-76 -29 -124 -87 -138 -168 -15 -86 35 -184 114 -225 45
-22 58 -23 247 -25 109 0 215 -6 234 -11 22 -7 45 -24 59 -45 22 -32 23 -42
25 -246 2 -236 8 -261 67 -319 106 -104 282 -71 345 64 22 49 23 61 23 267 0
276 -12 340 -92 467 -70 113 -211 213 -342 244 -28 6 -148 12 -273 13 -191 2
-229 0 -269 -16z"/>
<path d="M1840 1800 c-139 -18 -235 -65 -335 -165 -219 -218 -219 -561 0 -780
132 -133 302 -188 489 -160 104 16 250 95 316 171 69 81 123 190 138 278 11
69 5 191 -13 252 -60 209 -247 375 -450 399 -27 3 -59 7 -70 9 -11 1 -45 0
-75 -4z m130 -350 c20 -5 52 -25 73 -45 152 -144 40 -394 -168 -372 -69 7
-116 36 -156 93 -52 77 -47 185 12 257 55 67 148 92 239 67z"/>
<path d="M210 1109 c-78 -33 -129 -105 -136 -193 -3 -43 1 -62 23 -107 108
-211 425 -123 407 114 -6 72 -35 119 -103 166 -38 27 -148 39 -191 20z"/>
</g>
</svg>
